<svg id="Layer_1" data-name="Layer 1" xmlns="http://www.w3.org/2000/svg" viewBox="0 0 195.84 57.85"><defs><style>.cls-1{fill:#006838;}.cls-2,.cls-3,.cls-4{fill:#fff;}.cls-2,.cls-3{stroke:#006838;stroke-miterlimit:10;}.cls-3{stroke-width:0.5px;}.cls-5{fill:#6d6e71;}</style></defs><title>iShell</title><path class="cls-1" d="M253.92,399.28a3.43,3.43,0,0,1,3.41-3.39,3.31,3.31,0,0,1,2.43,1,3.23,3.23,0,0,1,1,2.41,3.31,3.31,0,0,1-1,2.43,3.23,3.23,0,0,1-2.41,1A3.43,3.43,0,0,1,253.92,399.28Zm6.05,9.46V431.5h-5.26V408.75H260Z" transform="translate(-199.97 -391.87)"/><path class="cls-1" d="M288,400.78l-4.42,2.62a7.59,7.59,0,0,0-2.36-2.8,5.51,5.51,0,0,0-3-.75,5.56,5.56,0,0,0-3.76,1.29,4,4,0,0,0-1.5,3.18q0,2.64,3.93,4.26l3.6,1.47a15.36,15.36,0,0,1,6.43,4.34,9.78,9.78,0,0,1,2,6.28,11,11,0,0,1-3.32,8.23,11.39,11.39,0,0,1-8.29,3.27,11.07,11.07,0,0,1-7.76-2.79,12.86,12.86,0,0,1-3.76-7.84l5.51-1.21a9.37,9.37,0,0,0,1.31,4.39,6.22,6.22,0,0,0,9.14.63,5.89,5.89,0,0,0,1.68-4.32,6.07,6.07,0,0,0-.29-1.93,4.9,4.9,0,0,0-.91-1.61,7.27,7.27,0,0,0-1.6-1.38,15.42,15.42,0,0,0-2.34-1.23l-3.48-1.45q-7.41-3.13-7.41-9.15a8.68,8.68,0,0,1,3.11-6.79,11.23,11.23,0,0,1,7.73-2.76Q284.52,394.73,288,400.78Z" transform="translate(-199.97 -391.87)"/><path class="cls-1" d="M301,409.54h15.56V395.43H322V431.5h-5.44V414.66H301V431.5h-5.44V395.43H301v14.11Z" transform="translate(-199.97 -391.87)"/><path class="cls-1" d="M350.53,400.54H336.07v8.67h14v5.12h-14v12.06h14.46v5.12H330.62V395.43h19.91v5.12Z" transform="translate(-199.97 -391.87)"/><path class="cls-1" d="M363.13,395.43v31h10.61v5.12H357.68V395.43h5.44Z" transform="translate(-199.97 -391.87)"/><path class="cls-1" d="M384.34,395.43v31H395v5.12H378.9V395.43h5.45Z" transform="translate(-199.97 -391.87)"/><path class="cls-2" d="M221.13,449.22c-2.56,0-20.65-10.94-20.65-12.63v-39s4.42,0.13,4.91-.36-0.05-4.91-.05-4.91h31.8s-0.55,4.41-.05,4.91,4.91,0.36,4.91.36v39C242,438.26,223.68,449.22,221.13,449.22Z" transform="translate(-199.97 -391.87)"/><path class="cls-3" d="M240.09,403V436c0,1.52-16.72,11.54-19.06,11.54s-18.87-10-18.87-11.54V399.75s3.46-.1,4.49-1.55,0.25-4.27.25-4.27h28.45s-0.77,2.82.25,4.27,4.49,1.55,4.49,1.55v3.9" transform="translate(-199.97 -391.87)"/><path class="cls-1" d="M221,447.62h0c-2.41-.06-18.85-10-18.85-11.54V399.88s3.46-.1,4.49-1.55,0.25-4.27.25-4.27h14.23Z" transform="translate(-199.97 -391.87)"/><rect class="cls-4" x="13.14" y="12.97" width="16.12" height="5.26"/><rect class="cls-4" x="13.14" y="24.94" width="16.12" height="5.26"/><rect class="cls-4" x="13.14" y="36.91" width="16.12" height="5.26"/><rect class="cls-1" x="15.13" y="11.1" width="16.12" height="5.26"/><rect class="cls-1" x="15.13" y="22.94" width="16.12" height="5.26"/><rect class="cls-1" x="15.13" y="34.91" width="16.12" height="5.26"/><path class="cls-5" d="M255.86,443.69H254.8V437.3h1.06v4.86l3.21-4.86h1.06v6.38h-1.06v-4.86Z" transform="translate(-199.97 -391.87)"/><path class="cls-5" d="M266.68,441.81a1.79,1.79,0,0,1-.83,1.57,3.12,3.12,0,0,1-1.78.49,3.41,3.41,0,0,1-1.72-.39,1.57,1.57,0,0,1-.84-1.45v0h1.06v0q0,1,1.49,1a1.82,1.82,0,0,0,1-.26,1,1,0,0,0,.48-0.86q0-1.13-1.65-1.13h-0.62v-0.82H264a1.47,1.47,0,0,0,.91-0.29,1,1,0,0,0,.41-0.84,0.69,0.69,0,0,0-.38-0.64,1.57,1.57,0,0,0-.77-0.17,1.71,1.71,0,0,0-1,.24,0.85,0.85,0,0,0-.37.68V439h-1.15V438.9a1.41,1.41,0,0,1,.34-0.87,2.64,2.64,0,0,1,2.2-.91,3.3,3.3,0,0,1,1.54.31,1.33,1.33,0,0,1,.77,1.26,1.65,1.65,0,0,1-.29,1,1.35,1.35,0,0,1-.81.56A1.54,1.54,0,0,1,266.68,441.81Z" transform="translate(-199.97 -391.87)"/><path class="cls-5" d="M270.87,443.86a2.77,2.77,0,0,1-2.26-1,4.13,4.13,0,0,1,0-4.78,3.08,3.08,0,0,1,4.51,0,4.12,4.12,0,0,1,0,4.77A2.76,2.76,0,0,1,270.87,443.86Zm0-.89a1.64,1.64,0,0,0,1.46-.8,3.44,3.44,0,0,0,0-3.36,1.75,1.75,0,0,0-2.93,0,3.45,3.45,0,0,0,0,3.37A1.65,1.65,0,0,0,270.87,443Z" transform="translate(-199.97 -391.87)"/><path class="cls-5" d="M280.41,443.69h-1.06v-5.49h-2.25v2.92q0,2.71-1.94,2.71a2.65,2.65,0,0,1-.71-0.1v-0.85a3.31,3.31,0,0,0,.62.06,0.84,0.84,0,0,0,.87-0.62A4.86,4.86,0,0,0,276,441v-3.7h4.36v6.38Z" transform="translate(-199.97 -391.87)"/><path class="cls-5" d="M285,441.09l-2.2,2.59h-1.33l2.24-2.64a2.29,2.29,0,0,1-1.27-.64,1.81,1.81,0,0,1-.51-1.31,1.72,1.72,0,0,1,.52-1.34,2,2,0,0,1,1.37-.45h3.06v6.38h-1.06v-2.59H285Zm0.82-.85v-2.1h-1.7a0.91,0.91,0,0,0-1,1,1,1,0,0,0,1.11,1.09h1.63Z" transform="translate(-199.97 -391.87)"/><path class="cls-5" d="M288.51,443.69V437.3h1.06v5.5h3.1v-5.5h1.06v5.5h1.06v3h-1v-2.08h-5.25Z" transform="translate(-199.97 -391.87)"/><path class="cls-5" d="M296.77,443.69h-1.06V437.3h1.06v4.86L300,437.3h1.06v6.38H300v-4.86Z" transform="translate(-199.97 -391.87)"/><path class="cls-5" d="M305.4,443.86a2.77,2.77,0,0,1-2.26-1,4.13,4.13,0,0,1,0-4.78,3.08,3.08,0,0,1,4.51,0,4.12,4.12,0,0,1,0,4.77A2.76,2.76,0,0,1,305.4,443.86Zm0-.89a1.64,1.64,0,0,0,1.46-.8,3.44,3.44,0,0,0,0-3.36,1.75,1.75,0,0,0-2.93,0,3.45,3.45,0,0,0,0,3.37A1.65,1.65,0,0,0,305.4,443Z" transform="translate(-199.97 -391.87)"/><path class="cls-5" d="M310.8,443.69h-1.06V437.3h1.06V440h3.1V437.3H315v6.38h-1.06v-2.83h-3.1v2.83Z" transform="translate(-199.97 -391.87)"/><path class="cls-5" d="M317.63,443.69h-1.06V437.3h1.06V440h3.1V437.3h1.06v6.38h-1.06v-2.83h-3.1v2.83Z" transform="translate(-199.97 -391.87)"/><path class="cls-5" d="M328.13,441.81a1.68,1.68,0,0,1-.91,1.66,3.61,3.61,0,0,1-1.5.22H323.4V437.3h1.06v2.27h1.11a2.83,2.83,0,0,1,1.79.54A2,2,0,0,1,328.13,441.81Zm-1.11,0a1.17,1.17,0,0,0-.46-1,2.2,2.2,0,0,0-1.21-.26h-0.9v2.34h1.3a1.61,1.61,0,0,0,.94-0.22A0.94,0.94,0,0,0,327,441.77Zm2.16-4.47h1.06v6.38h-1.06V437.3Z" transform="translate(-199.97 -391.87)"/><path class="cls-5" d="M336.06,442h1.06v0.06a1.43,1.43,0,0,1-.34.86,2.55,2.55,0,0,1-2.17.9,2.83,2.83,0,0,1-2.26-1,3.51,3.51,0,0,1-.78-2.37,3.65,3.65,0,0,1,.78-2.38,2.7,2.7,0,0,1,2.22-1q2.59,0,2.59,3.15v0.35h-4.53a2.52,2.52,0,0,0,.53,1.66,1.89,1.89,0,0,0,1.55.69,1.93,1.93,0,0,0,.87-0.18,0.74,0.74,0,0,0,.47-0.69V442Zm-3.36-2.22h3.44V439.7a1.6,1.6,0,0,0-1.69-1.69,1.52,1.52,0,0,0-1.19.58A2.6,2.6,0,0,0,332.7,439.83Z" transform="translate(-199.97 -391.87)"/><path class="cls-5" d="M345.23,443.86a2.77,2.77,0,0,1-2.26-1,4.13,4.13,0,0,1,0-4.78,3.08,3.08,0,0,1,4.51,0,4.12,4.12,0,0,1,0,4.77A2.76,2.76,0,0,1,345.23,443.86Zm0-.89a1.64,1.64,0,0,0,1.46-.8,3.44,3.44,0,0,0,0-3.36,1.75,1.75,0,0,0-2.93,0,3.45,3.45,0,0,0,0,3.37A1.65,1.65,0,0,0,345.23,443Z" transform="translate(-199.97 -391.87)"/><path class="cls-5" d="M355.33,440.58a3.51,3.51,0,0,1-.75,2.34,2.77,2.77,0,0,1-2.23.94q-2.88,0-2.88-3.94a7.21,7.21,0,0,1,.54-3.17,2.94,2.94,0,0,1,2.61-1.56q0.75-.06,1-0.1,0.39-.07.39-0.28h1.25a1.12,1.12,0,0,1-.68,1.11,6.42,6.42,0,0,1-2,.33q-2.05.13-2.35,2.73h0a2.58,2.58,0,0,1,.83-1.14,2.29,2.29,0,0,1,1.46-.54,2.45,2.45,0,0,1,2.06,1A3.67,3.67,0,0,1,355.33,440.58Zm-1.11,0a3,3,0,0,0-.43-1.63,1.66,1.66,0,0,0-2.79,0,3.39,3.39,0,0,0,0,3.28,1.57,1.57,0,0,0,1.4.76,1.55,1.55,0,0,0,1.4-.78A3,3,0,0,0,354.22,440.58Z" transform="translate(-199.97 -391.87)"/><path class="cls-5" d="M359.41,443.86a2.77,2.77,0,0,1-2.26-1,4.13,4.13,0,0,1,0-4.78,3.08,3.08,0,0,1,4.51,0,4.12,4.12,0,0,1,0,4.77A2.76,2.76,0,0,1,359.41,443.86Zm0-.89a1.64,1.64,0,0,0,1.46-.8,3.44,3.44,0,0,0,0-3.36,1.75,1.75,0,0,0-2.93,0,3.45,3.45,0,0,0,0,3.37A1.65,1.65,0,0,0,359.41,443Z" transform="translate(-199.97 -391.87)"/><path class="cls-5" d="M368.94,443.69h-1.06v-5.49h-2.25v2.92q0,2.71-1.94,2.71a2.65,2.65,0,0,1-.71-0.1v-0.85a3.31,3.31,0,0,0,.62.06,0.84,0.84,0,0,0,.87-0.62,4.85,4.85,0,0,0,.12-1.32v-3.7h4.36v6.38Z" transform="translate(-199.97 -391.87)"/><path class="cls-5" d="M373.33,443.86a2.77,2.77,0,0,1-2.26-1,4.13,4.13,0,0,1,0-4.78,3.08,3.08,0,0,1,4.51,0,4.12,4.12,0,0,1,0,4.77A2.76,2.76,0,0,1,373.33,443.86Zm0-.89a1.64,1.64,0,0,0,1.46-.8,3.44,3.44,0,0,0,0-3.36,1.75,1.75,0,0,0-2.93,0,3.45,3.45,0,0,0,0,3.37A1.65,1.65,0,0,0,373.33,443Z" transform="translate(-199.97 -391.87)"/><path class="cls-5" d="M382.58,443.69h-1.06V441a5,5,0,0,1-1.82.32,2,2,0,0,1-1.67-.63,2.83,2.83,0,0,1-.45-1.77V437.3h1.06v1.2a3.41,3.41,0,0,0,.17,1.33,1.12,1.12,0,0,0,1.12.54,4.4,4.4,0,0,0,1.58-.29V437.3h1.06v6.38Z" transform="translate(-199.97 -391.87)"/><path class="cls-5" d="M385.28,443.69h-1.06V437.3h1.06v3.12l2.87-3.12h1.25l-2.82,3,3,3.34h-1.36l-2.95-3.26v3.26Z" transform="translate(-199.97 -391.87)"/><path class="cls-5" d="M391.53,443.69h-1.06V437.3h1.06v4.86l3.21-4.86h1.06v6.38h-1.06v-4.86Z" transform="translate(-199.97 -391.87)"/></svg>